<?xml version="1.0" encoding="UTF-8"?>
<!DOCTYPE svg PUBLIC "-//W3C//DTD SVG 1.1//EN" "http://www.w3.org/Graphics/SVG/1.1/DTD/svg11.dtd">
<!-- Creator: CorelDRAW -->
<svg xmlns="http://www.w3.org/2000/svg" xml:space="preserve" width="210mm" height="297mm" version="1.1" style="shape-rendering:geometricPrecision; text-rendering:geometricPrecision; image-rendering:optimizeQuality; fill-rule:evenodd; clip-rule:evenodd"
viewBox="0 0 21000 29700"
 xmlns:xlink="http://www.w3.org/1999/xlink"
 xmlns:xodm="http://www.corel.com/coreldraw/odm/2003">
 <defs>
  <style type="text/css">
   <![CDATA[
    .fil4 {fill:#54D43E}
    .fil3 {fill:#ED001C}
    .fil5 {fill:#F9D59D}
    .fil1 {fill:#FADFB2}
    .fil0 {fill:white}
    .fil2 {fill:black;fill-rule:nonzero}
   ]]>
  </style>
 </defs>
 <g id="Layer_x0020_1">
  <metadata id="CorelCorpID_0Corel-Layer"/>
  <g id="_2267130461072">
   <path class="fil0" d="M11822.69 12534.31c30.38,316.02 61.67,632 93.07,947.87 36.91,371.77 118.03,727.9 258.6,1074.36 111.15,273.84 252.88,521.96 402.01,775.96 209.53,356.99 400.74,689.87 485.7,1101.45 148.27,718.39 -61.06,1441.6 -665.31,1883.84 -381.3,279.11 -857.99,390.11 -1324.86,330.75 -533.06,-67.76 -1001.7,-344.51 -1364.21,-734.56 -530.68,-571 -812.02,-1351.46 -947.87,-2107.12 -95.35,-530.16 -125.73,-1074.61 -115.91,-1612.63 10.33,-562.93 64.66,-1126.87 148.16,-1684.48 -557.51,-55.8 -1120.03,-143.91 -1658.71,-283.47 -732.71,-189.88 -1818.56,-583.28 -2033.99,-1408.46 -51.56,-197.53 -46.64,-398.97 4.43,-596.05 392.17,-1513.38 1237.35,-2864.27 2579.43,-3702.76 828.01,-517.26 1781.05,-793.08 2757.58,-793.08 976.53,0 1929.62,275.82 2757.58,793.08 1342.08,838.49 2187.26,2189.38 2579.44,3702.76 51.04,197.08 56,398.52 4.4,596.05 -215.41,825.18 -1301.21,1218.58 -2033.98,1408.46 -622.42,161.28 -1279.49,255.06 -1925.56,308.03z"/>
   <path class="fil1" d="M9328.87 12091.74c-1348.05,7474.79 3800.3,6945.55 3282.03,4435.03 -181.84,-880.73 -993.85,-1390.39 -1153.56,-2999.17 -78.03,-785.73 -117.58,-1201.71 -137.68,-1421.83 -658.43,34.73 -1338.18,30.08 -1990.79,-14.03z"/>
   <path class="fil2" d="M9468.53 12101.01c-533.66,2941.39 -55.95,4613.52 678.84,5404.14 309.14,332.65 662.33,505.32 999.97,548.25 332.13,42.22 649.93,-40.77 894.71,-219.93 348.68,-255.21 549.76,-709.54 432.23,-1278.85 -67.19,-325.39 -231.97,-606.07 -415.37,-918.5 -297.29,-506.47 -640.81,-1091.63 -740.41,-2094.85 -78.04,-786.19 -117.89,-1205.21 -138.24,-1428.36 93.37,-4.15 186.19,-9.27 278.7,-14.94 19.8,216.68 59.1,629.52 137.18,1415.96 93.58,942.6 420.38,1499.35 703.24,1981.16 195.71,333.45 371.57,633.06 448.14,1003.83 142.14,688.56 -108.52,1243.57 -540.45,1559.7 -301.09,220.4 -690.03,322.75 -1094.67,271.31 -399.06,-50.73 -812.67,-250.75 -1169.4,-634.6 -782.34,-841.75 -1298.08,-2587.05 -754.95,-5613.56 92.97,7.14 186.35,13.72 280.48,19.24z"/>
   <path class="fil3" d="M5549.69 10337.33c1433.99,-5533.75 8348.25,-5533.75 9782.23,0 619.14,2389.14 -10401.32,2389.14 -9782.23,0z"/>
   <path class="fil2" d="M5414.7 10302.34c427.52,-1649.7 1333.22,-2820.22 2438.72,-3510.96 794.19,-496.19 1690.81,-744.26 2587.39,-744.26 896.52,0 1793.2,248.07 2587.39,744.26 1105.55,690.74 2011.19,1861.26 2438.72,3510.96 197.79,763.4 -583.74,1298.02 -1799.23,1613.03 -909.99,235.82 -2069.68,353.7 -3226.88,353.7 -1157.21,0 -2316.84,-117.88 -3226.88,-353.7 -1215.49,-315.01 -1997.05,-849.63 -1799.23,-1613.03zm2586.27 -3273.78c-1048.33,654.99 -1908.3,1769.36 -2316.28,3343.76 -148.11,571.59 541.61,999.01 1599.22,1273.06 884.67,229.28 2019.54,343.87 3156.9,343.87 1137.3,0 2272.22,-114.59 3156.9,-343.87 1057.6,-274.05 1747.38,-701.47 1599.21,-1273.06 -407.98,-1574.4 -1267.94,-2688.77 -2316.23,-3343.76 -748.76,-467.78 -1594.25,-701.67 -2439.88,-701.67 -845.64,0 -1691.12,233.89 -2439.84,701.67z"/>
   <path class="fil4" d="M7800.81 9872.48c140.82,0 255,114.14 255,254.96 0,140.87 -114.18,255 -255,255 -140.88,0 -255.01,-114.13 -255.01,-255 0,-140.82 114.13,-254.96 255.01,-254.96z"/>
   <path class="fil4" d="M7341.78 9366.11c68.41,0 123.86,55.45 123.86,123.86 0,68.41 -55.45,123.86 -123.86,123.86 -68.36,0 -123.85,-55.45 -123.85,-123.86 0,-68.41 55.49,-123.86 123.85,-123.86z"/>
   <path class="fil4" d="M8616.77 8954.49c98.59,0 178.49,79.9 178.49,178.49 0,98.59 -79.9,178.5 -178.49,178.5 -98.59,0 -178.5,-79.91 -178.5,-178.5 0,-98.59 79.91,-178.49 178.5,-178.49z"/>
   <path class="fil4" d="M6748.93 10261.32c140.82,0 255,114.19 255,255.01 0,140.82 -114.18,255.01 -255,255.01 -140.82,0 -255.01,-114.19 -255.01,-255.01 0,-140.82 114.19,-255.01 255.01,-255.01z"/>
   <path class="fil4" d="M8894.56 9640.26c68.36,0 123.81,55.45 123.81,123.86 0,68.36 -55.45,123.86 -123.81,123.86 -68.41,0 -123.86,-55.5 -123.86,-123.86 0,-68.41 55.45,-123.86 123.86,-123.86z"/>
   <path class="fil4" d="M8533.88 10711.23c68.46,0 123.9,55.45 123.9,123.86 0,68.41 -55.44,123.86 -123.9,123.86 -68.36,0 -123.81,-55.45 -123.81,-123.86 0,-68.41 55.45,-123.86 123.81,-123.86z"/>
   <path class="fil4" d="M7692.44 10771.34c98.54,0 178.5,79.9 178.5,178.49 0,98.59 -79.96,178.5 -178.5,178.5 -98.59,0 -178.49,-79.91 -178.49,-178.5 0,-98.59 79.9,-178.49 178.49,-178.49z"/>
   <path class="fil4" d="M9375.41 10146.58c98.59,0 178.49,79.9 178.49,178.49 0,98.59 -79.9,178.5 -178.49,178.5 -98.59,0 -178.5,-79.91 -178.5,-178.5 0,-98.59 79.91,-178.49 178.5,-178.49z"/>
   <path class="fil2" d="M9842.48 15448.26c-2.28,-18.64 10.99,-35.6 29.63,-37.83 18.63,-2.28 35.59,10.99 37.82,29.57 14.03,113.07 33.57,218.8 58.74,317.34 25.07,98.14 55.65,189.03 91.75,272.63 7.4,17.22 -0.55,37.22 -17.77,44.61 -17.27,7.39 -37.22,-0.55 -44.66,-17.77 -37.52,-86.95 -69.27,-181.18 -95.2,-282.76 -25.87,-101.22 -45.93,-209.84 -60.31,-325.79z"/>
   <path class="fil2" d="M10263.63 15966.78c-3.44,-18.44 8.66,-36.16 27.09,-39.6 18.43,-3.45 36.16,8.66 39.6,27.09 16.3,86.44 40.96,168.87 73.98,247.26 32.96,78.28 74.44,152.97 124.41,223.97 10.79,15.29 7.09,36.45 -8.2,47.24 -15.34,10.79 -36.51,7.14 -47.29,-8.2 -52.52,-74.64 -96.32,-153.54 -131.31,-236.73 -35.04,-83.1 -61.11,-170.14 -78.28,-261.03z"/>
   <path class="fil2" d="M9977.84 16468.13c-5.73,-17.82 4.1,-36.91 21.87,-42.63 17.83,-5.73 36.97,4.05 42.64,21.87 18.68,58.03 40.86,112.77 66.53,164.21 25.58,51.1 54.94,99.46 88.06,144.98 11.04,15.19 7.65,36.41 -7.54,47.45 -15.2,10.98 -36.41,7.59 -47.4,-7.6 -34.89,-47.9 -66.08,-99.4 -93.68,-154.54 -27.39,-54.84 -50.89,-112.77 -70.48,-173.74z"/>
   <path class="fil2" d="M10341.31 16532.54c-6.08,-17.77 3.39,-37.12 21.11,-43.19 17.78,-6.08 37.07,3.39 43.2,21.11 32.91,95.81 66.23,172.32 99.95,229.59 32,54.28 63.81,90.64 95.4,109.07 16.21,9.47 21.67,30.28 12.21,46.49 -9.47,16.2 -30.29,21.72 -46.49,12.25 -41.52,-24.25 -81.37,-68.76 -119.55,-133.53 -36.36,-61.72 -71.65,-142.34 -105.83,-241.79z"/>
   <path class="fil2" d="M10584.21 16138.99c-6.99,-17.37 1.37,-37.17 18.74,-44.2 17.37,-7.04 37.21,1.31 44.25,18.73 43.91,107.66 79.91,176.42 107.96,206.25 12.81,13.62 12.2,35.09 -1.47,47.95 -13.62,12.81 -35.14,12.15 -47.95,-1.47 -33.88,-36.05 -74.39,-111.81 -121.53,-227.26z"/>
   <path class="fil2" d="M9817.52 16069.26c-3.75,-18.33 8.1,-36.2 26.43,-39.95 18.33,-3.74 36.26,8.1 39.95,26.43 7.95,38.64 17.42,72.01 28.46,100.17 10.43,26.58 22.08,47.85 34.94,63.85 11.7,14.58 9.37,35.95 -5.21,47.7 -14.59,11.69 -35.96,9.37 -47.7,-5.22 -17.22,-21.47 -32.26,-48.71 -45.22,-81.62 -12.31,-31.35 -22.89,-68.47 -31.65,-111.36z"/>
   <path class="fil2" d="M10145.95 16216.97c-4.31,-18.28 6.99,-36.61 25.22,-40.91 18.28,-4.31 36.61,6.99 40.91,25.22 9.32,39.19 20.92,73.32 34.69,102.38 13.37,28.11 28.81,51.6 46.33,70.44 12.76,13.72 12,35.19 -1.72,47.9 -13.72,12.76 -35.19,12 -47.95,-1.72 -22.28,-23.9 -41.63,-53.12 -58.03,-87.65 -15.95,-33.63 -29.12,-72.21 -39.45,-115.66z"/>
   <path class="fil2" d="M10218.61 15562.75c-2.12,-18.64 11.24,-35.45 29.88,-37.58 18.63,-2.12 35.45,11.24 37.57,29.88 4.66,39.6 12,75.6 21.98,107.96 9.82,31.85 22.23,60.46 37.27,85.77 9.52,16.16 4.2,36.97 -11.95,46.49 -16.16,9.57 -36.97,4.2 -46.49,-11.95 -17.67,-29.67 -32.2,-63.15 -43.65,-100.36 -11.29,-36.66 -19.49,-76.77 -24.61,-120.21z"/>
   <path class="fil2" d="M9698.93 15635.11c-1.62,-18.69 12.25,-35.15 30.94,-36.77 18.68,-1.62 35.19,12.26 36.76,30.94 3.24,36.66 8.81,70.28 16.71,100.97 7.9,30.64 18.18,58.89 30.84,84.72 8.25,16.76 1.26,37.06 -15.5,45.27 -16.81,8.2 -37.12,1.26 -45.32,-15.55 -14.63,-29.93 -26.53,-62.48 -35.6,-97.73 -9.11,-35.19 -15.39,-72.51 -18.83,-111.85z"/>
   <path class="fil2" d="M9539.57 15923.18c-0.55,-18.69 14.18,-34.28 32.92,-34.79 18.68,-0.51 34.28,14.23 34.78,32.96 0.76,25.78 4.71,51.15 11.85,75.96 7.14,24.81 17.68,49.47 31.6,73.98 9.22,16.26 3.5,36.96 -12.76,46.18 -16.25,9.27 -36.96,3.55 -46.23,-12.71 -16.36,-28.86 -28.91,-58.43 -37.67,-88.87 -8.81,-30.43 -13.63,-61.32 -14.49,-92.71z"/>
   <path class="fil2" d="M9687.08 16405.14c-4.36,-18.18 6.78,-36.51 25.01,-40.86 18.18,-4.41 36.46,6.73 40.87,24.96 8.1,32.96 18.07,64.92 29.92,95.91 11.7,30.48 25.12,59.49 40.21,86.94 9.01,16.46 2.99,37.06 -13.42,46.08 -16.41,9.01 -37.07,3.04 -46.08,-13.42 -16.71,-30.38 -31.44,-62.18 -44.15,-95.45 -12.61,-32.76 -23.35,-67.5 -32.36,-104.16z"/>
   <path class="fil4" d="M11065.41 6369.63c1601.6,458.67 3023.73,1781.25 3590.31,3967.7 175.5,677.32 -584.45,1162.62 -1749.51,1455.91 243.06,-42.44 474.77,-91.71 691.5,-147.86 1057.6,-274.05 1747.38,-701.47 1599.21,-1273.06 -407.98,-1574.4 -1267.94,-2688.77 -2316.23,-3343.76 -563.94,-352.33 -1182.82,-571.94 -1815.28,-658.93z"/>
   <path class="fil5" d="M11318.5 13541.27c-64.06,-645.62 -102.44,-1043.62 -125.33,-1288.91 -177.28,7.95 -355.88,13.01 -534.67,15.34 22.93,244.68 60.66,635.65 122.64,1259.9 159.71,1608.78 971.72,2118.44 1153.56,2999.17 149.98,726.48 -174.6,1287.14 -679.04,1536.03 292.37,13.54 568.34,-69.75 786.39,-229.33 348.68,-255.21 549.76,-709.54 432.23,-1278.85 -67.19,-325.39 -231.97,-606.07 -415.37,-918.5 -297.29,-506.47 -640.81,-1091.63 -740.41,-2094.85z"/>
  </g>
 </g>
</svg>
